<mxfile host="app.diagrams.net" agent="Mozilla/5.0 (Windows NT 10.0; Win64; x64) AppleWebKit/537.36 (KHTML, like Gecko) Chrome/133.0.0.0 Safari/537.36" version="26.1.0">
  <diagram id="C5RBs43oDa-KdzZeNtuy" name="Page-1">
    <mxGraphModel dx="1050" dy="522" grid="1" gridSize="10" guides="1" tooltips="1" connect="1" arrows="1" fold="1" page="1" pageScale="1" pageWidth="827" pageHeight="1169" math="0" shadow="0">
      <root>
        <mxCell id="WIyWlLk6GJQsqaUBKTNV-0" />
        <mxCell id="WIyWlLk6GJQsqaUBKTNV-1" parent="WIyWlLk6GJQsqaUBKTNV-0" />
        <mxCell id="AluL9wqYmL2-duGfTxGr-4" value="&lt;span style=&quot;font-weight: normal;&quot;&gt;&amp;lt;&amp;lt;class&amp;gt;&amp;gt;&lt;/span&gt;&lt;br&gt;BankAccount" style="swimlane;fontStyle=1;align=center;verticalAlign=top;childLayout=stackLayout;horizontal=1;startSize=40;horizontalStack=0;resizeParent=1;resizeParentMax=0;resizeLast=0;collapsible=1;marginBottom=0;whiteSpace=wrap;html=1;fillColor=#fff2cc;strokeColor=#d6b656;" parent="WIyWlLk6GJQsqaUBKTNV-1" vertex="1">
          <mxGeometry x="240" y="300" width="270" height="170" as="geometry" />
        </mxCell>
        <mxCell id="AluL9wqYmL2-duGfTxGr-5" value="+ AcccountNumber: string" style="text;strokeColor=none;fillColor=none;align=left;verticalAlign=top;spacingLeft=4;spacingRight=4;overflow=hidden;rotatable=0;points=[[0,0.5],[1,0.5]];portConstraint=eastwest;whiteSpace=wrap;html=1;" parent="AluL9wqYmL2-duGfTxGr-4" vertex="1">
          <mxGeometry y="40" width="270" height="26" as="geometry" />
        </mxCell>
        <mxCell id="AluL9wqYmL2-duGfTxGr-8" value="+ AccountOwner: string" style="text;strokeColor=none;fillColor=none;align=left;verticalAlign=top;spacingLeft=4;spacingRight=4;overflow=hidden;rotatable=0;points=[[0,0.5],[1,0.5]];portConstraint=eastwest;whiteSpace=wrap;html=1;" parent="AluL9wqYmL2-duGfTxGr-4" vertex="1">
          <mxGeometry y="66" width="270" height="26" as="geometry" />
        </mxCell>
        <mxCell id="AluL9wqYmL2-duGfTxGr-9" value="+ BalanceAmount: decimal" style="text;strokeColor=none;fillColor=none;align=left;verticalAlign=top;spacingLeft=4;spacingRight=4;overflow=hidden;rotatable=0;points=[[0,0.5],[1,0.5]];portConstraint=eastwest;whiteSpace=wrap;html=1;" parent="AluL9wqYmL2-duGfTxGr-4" vertex="1">
          <mxGeometry y="92" width="270" height="26" as="geometry" />
        </mxCell>
        <mxCell id="AluL9wqYmL2-duGfTxGr-10" value="+ AccountType: AccountType" style="text;strokeColor=none;fillColor=none;align=left;verticalAlign=top;spacingLeft=4;spacingRight=4;overflow=hidden;rotatable=0;points=[[0,0.5],[1,0.5]];portConstraint=eastwest;whiteSpace=wrap;html=1;" parent="AluL9wqYmL2-duGfTxGr-4" vertex="1">
          <mxGeometry y="118" width="270" height="26" as="geometry" />
        </mxCell>
        <mxCell id="BMBOPFPymLsVaU6WiDwy-0" value="+ OverdraftAmount: decimal" style="text;strokeColor=none;fillColor=none;align=left;verticalAlign=top;spacingLeft=4;spacingRight=4;overflow=hidden;rotatable=0;points=[[0,0.5],[1,0.5]];portConstraint=eastwest;whiteSpace=wrap;html=1;" vertex="1" parent="AluL9wqYmL2-duGfTxGr-4">
          <mxGeometry y="144" width="270" height="26" as="geometry" />
        </mxCell>
        <mxCell id="C3IAA2ibwuoFM_nmyOEY-12" value="Live In" style="edgeStyle=orthogonalEdgeStyle;rounded=0;orthogonalLoop=1;jettySize=auto;html=1;" parent="WIyWlLk6GJQsqaUBKTNV-1" source="AluL9wqYmL2-duGfTxGr-39" target="C3IAA2ibwuoFM_nmyOEY-1" edge="1">
          <mxGeometry relative="1" as="geometry" />
        </mxCell>
        <mxCell id="AluL9wqYmL2-duGfTxGr-39" value="&lt;span style=&quot;font-weight: 400;&quot;&gt;&amp;lt;&amp;lt;class&amp;gt;&amp;gt;&lt;/span&gt;&lt;br&gt;BankService" style="swimlane;fontStyle=1;align=center;verticalAlign=top;childLayout=stackLayout;horizontal=1;startSize=40;horizontalStack=0;resizeParent=1;resizeParentMax=0;resizeLast=0;collapsible=1;marginBottom=0;whiteSpace=wrap;html=1;fillColor=#e1d5e7;strokeColor=#9673a6;" parent="WIyWlLk6GJQsqaUBKTNV-1" vertex="1">
          <mxGeometry x="320" y="30" width="490" height="144" as="geometry" />
        </mxCell>
        <mxCell id="AluL9wqYmL2-duGfTxGr-42" value="+ CreateAccount(bankAccount: IBankAccount): BankAccount" style="text;strokeColor=none;fillColor=none;align=left;verticalAlign=top;spacingLeft=4;spacingRight=4;overflow=hidden;rotatable=0;points=[[0,0.5],[1,0.5]];portConstraint=eastwest;whiteSpace=wrap;html=1;" parent="AluL9wqYmL2-duGfTxGr-39" vertex="1">
          <mxGeometry y="40" width="490" height="26" as="geometry" />
        </mxCell>
        <mxCell id="AluL9wqYmL2-duGfTxGr-55" value="+ GetBalanceAccount(accountNumber: string): BankAccount" style="text;strokeColor=none;fillColor=none;align=left;verticalAlign=top;spacingLeft=4;spacingRight=4;overflow=hidden;rotatable=0;points=[[0,0.5],[1,0.5]];portConstraint=eastwest;whiteSpace=wrap;html=1;" parent="AluL9wqYmL2-duGfTxGr-39" vertex="1">
          <mxGeometry y="66" width="490" height="26" as="geometry" />
        </mxCell>
        <mxCell id="AluL9wqYmL2-duGfTxGr-56" value="+ DepositAmount(accountNumber: string, amountValue&amp;gt; decimal): BankAccount" style="text;strokeColor=none;fillColor=none;align=left;verticalAlign=top;spacingLeft=4;spacingRight=4;overflow=hidden;rotatable=0;points=[[0,0.5],[1,0.5]];portConstraint=eastwest;whiteSpace=wrap;html=1;" parent="AluL9wqYmL2-duGfTxGr-39" vertex="1">
          <mxGeometry y="92" width="490" height="26" as="geometry" />
        </mxCell>
        <mxCell id="AluL9wqYmL2-duGfTxGr-58" value="+ WithdrawalAmount(accountNumber: string, amountValue&amp;gt; decimal): BankAccount" style="text;strokeColor=none;fillColor=none;align=left;verticalAlign=top;spacingLeft=4;spacingRight=4;overflow=hidden;rotatable=0;points=[[0,0.5],[1,0.5]];portConstraint=eastwest;whiteSpace=wrap;html=1;" parent="AluL9wqYmL2-duGfTxGr-39" vertex="1">
          <mxGeometry y="118" width="490" height="26" as="geometry" />
        </mxCell>
        <mxCell id="AluL9wqYmL2-duGfTxGr-43" value="Program" style="swimlane;fontStyle=1;align=center;verticalAlign=top;childLayout=stackLayout;horizontal=1;startSize=26;horizontalStack=0;resizeParent=1;resizeParentMax=0;resizeLast=0;collapsible=1;marginBottom=0;whiteSpace=wrap;html=1;fillColor=#dae8fc;strokeColor=#6c8ebf;" parent="WIyWlLk6GJQsqaUBKTNV-1" vertex="1">
          <mxGeometry x="1041" y="80" width="400" height="390" as="geometry" />
        </mxCell>
        <mxCell id="AluL9wqYmL2-duGfTxGr-45" value="" style="line;strokeWidth=1;fillColor=none;align=left;verticalAlign=middle;spacingTop=-1;spacingLeft=3;spacingRight=3;rotatable=0;labelPosition=right;points=[];portConstraint=eastwest;strokeColor=inherit;" parent="AluL9wqYmL2-duGfTxGr-43" vertex="1">
          <mxGeometry y="26" width="400" height="8" as="geometry" />
        </mxCell>
        <mxCell id="AluL9wqYmL2-duGfTxGr-46" value="+ Menu(): void" style="text;strokeColor=none;fillColor=none;align=left;verticalAlign=top;spacingLeft=4;spacingRight=4;overflow=hidden;rotatable=0;points=[[0,0.5],[1,0.5]];portConstraint=eastwest;whiteSpace=wrap;html=1;" parent="AluL9wqYmL2-duGfTxGr-43" vertex="1">
          <mxGeometry y="34" width="400" height="26" as="geometry" />
        </mxCell>
        <mxCell id="AluL9wqYmL2-duGfTxGr-47" value="+ CreateAccount(): void" style="text;strokeColor=none;fillColor=none;align=left;verticalAlign=top;spacingLeft=4;spacingRight=4;overflow=hidden;rotatable=0;points=[[0,0.5],[1,0.5]];portConstraint=eastwest;whiteSpace=wrap;html=1;" parent="AluL9wqYmL2-duGfTxGr-43" vertex="1">
          <mxGeometry y="60" width="400" height="26" as="geometry" />
        </mxCell>
        <mxCell id="C3IAA2ibwuoFM_nmyOEY-0" value="+ DepositAmount(): void" style="text;strokeColor=none;fillColor=none;align=left;verticalAlign=top;spacingLeft=4;spacingRight=4;overflow=hidden;rotatable=0;points=[[0,0.5],[1,0.5]];portConstraint=eastwest;whiteSpace=wrap;html=1;" parent="AluL9wqYmL2-duGfTxGr-43" vertex="1">
          <mxGeometry y="86" width="400" height="26" as="geometry" />
        </mxCell>
        <mxCell id="C3IAA2ibwuoFM_nmyOEY-1" value="+ GetBalance(): void" style="text;strokeColor=none;fillColor=none;align=left;verticalAlign=top;spacingLeft=4;spacingRight=4;overflow=hidden;rotatable=0;points=[[0,0.5],[1,0.5]];portConstraint=eastwest;whiteSpace=wrap;html=1;" parent="AluL9wqYmL2-duGfTxGr-43" vertex="1">
          <mxGeometry y="112" width="400" height="26" as="geometry" />
        </mxCell>
        <mxCell id="C3IAA2ibwuoFM_nmyOEY-3" value="+ WithdrawalAmount(): void" style="text;strokeColor=none;fillColor=none;align=left;verticalAlign=top;spacingLeft=4;spacingRight=4;overflow=hidden;rotatable=0;points=[[0,0.5],[1,0.5]];portConstraint=eastwest;whiteSpace=wrap;html=1;" parent="AluL9wqYmL2-duGfTxGr-43" vertex="1">
          <mxGeometry y="138" width="400" height="26" as="geometry" />
        </mxCell>
        <mxCell id="C3IAA2ibwuoFM_nmyOEY-2" value="+ IsValidAccountNumber(accountNumber:string): bool" style="text;strokeColor=none;fillColor=none;align=left;verticalAlign=top;spacingLeft=4;spacingRight=4;overflow=hidden;rotatable=0;points=[[0,0.5],[1,0.5]];portConstraint=eastwest;whiteSpace=wrap;html=1;" parent="AluL9wqYmL2-duGfTxGr-43" vertex="1">
          <mxGeometry y="164" width="400" height="26" as="geometry" />
        </mxCell>
        <mxCell id="C3IAA2ibwuoFM_nmyOEY-5" value="+ IsValidAmount(inputAmount: string):&amp;nbsp;bool" style="text;strokeColor=none;fillColor=none;align=left;verticalAlign=top;spacingLeft=4;spacingRight=4;overflow=hidden;rotatable=0;points=[[0,0.5],[1,0.5]];portConstraint=eastwest;whiteSpace=wrap;html=1;" parent="AluL9wqYmL2-duGfTxGr-43" vertex="1">
          <mxGeometry y="190" width="400" height="26" as="geometry" />
        </mxCell>
        <mxCell id="C3IAA2ibwuoFM_nmyOEY-4" value="+ IsValidAccountOwner(accountOwner:string): bool" style="text;strokeColor=none;fillColor=none;align=left;verticalAlign=top;spacingLeft=4;spacingRight=4;overflow=hidden;rotatable=0;points=[[0,0.5],[1,0.5]];portConstraint=eastwest;whiteSpace=wrap;html=1;" parent="AluL9wqYmL2-duGfTxGr-43" vertex="1">
          <mxGeometry y="216" width="400" height="26" as="geometry" />
        </mxCell>
        <mxCell id="C3IAA2ibwuoFM_nmyOEY-6" value="+&amp;nbsp;GetValidAccoountType():&amp;nbsp;AccountType" style="text;strokeColor=none;fillColor=none;align=left;verticalAlign=top;spacingLeft=4;spacingRight=4;overflow=hidden;rotatable=0;points=[[0,0.5],[1,0.5]];portConstraint=eastwest;whiteSpace=wrap;html=1;" parent="AluL9wqYmL2-duGfTxGr-43" vertex="1">
          <mxGeometry y="242" width="400" height="26" as="geometry" />
        </mxCell>
        <mxCell id="C3IAA2ibwuoFM_nmyOEY-8" value="+&amp;nbsp;GetValidAccountNumber():&amp;nbsp;string" style="text;strokeColor=none;fillColor=none;align=left;verticalAlign=top;spacingLeft=4;spacingRight=4;overflow=hidden;rotatable=0;points=[[0,0.5],[1,0.5]];portConstraint=eastwest;whiteSpace=wrap;html=1;" parent="AluL9wqYmL2-duGfTxGr-43" vertex="1">
          <mxGeometry y="268" width="400" height="26" as="geometry" />
        </mxCell>
        <mxCell id="C3IAA2ibwuoFM_nmyOEY-7" value="+&amp;nbsp;GetValidAmount(titleAmount:&amp;nbsp;string):&amp;nbsp;decimal" style="text;strokeColor=none;fillColor=none;align=left;verticalAlign=top;spacingLeft=4;spacingRight=4;overflow=hidden;rotatable=0;points=[[0,0.5],[1,0.5]];portConstraint=eastwest;whiteSpace=wrap;html=1;" parent="AluL9wqYmL2-duGfTxGr-43" vertex="1">
          <mxGeometry y="294" width="400" height="26" as="geometry" />
        </mxCell>
        <mxCell id="C3IAA2ibwuoFM_nmyOEY-10" value="+ GetValidAccountOwner():&amp;nbsp;string" style="text;strokeColor=none;fillColor=none;align=left;verticalAlign=top;spacingLeft=4;spacingRight=4;overflow=hidden;rotatable=0;points=[[0,0.5],[1,0.5]];portConstraint=eastwest;whiteSpace=wrap;html=1;" parent="AluL9wqYmL2-duGfTxGr-43" vertex="1">
          <mxGeometry y="320" width="400" height="26" as="geometry" />
        </mxCell>
        <mxCell id="C3IAA2ibwuoFM_nmyOEY-11" value="+ CreateBankAccount(accountType:AccountType, accountNumber:string&amp;nbsp;&lt;br&gt;, accountOwner: string, initialBalanceAmount: decimal;): IBankAccount&amp;nbsp;" style="text;strokeColor=none;fillColor=none;align=left;verticalAlign=top;spacingLeft=4;spacingRight=4;overflow=hidden;rotatable=0;points=[[0,0.5],[1,0.5]];portConstraint=eastwest;whiteSpace=wrap;html=1;" parent="AluL9wqYmL2-duGfTxGr-43" vertex="1">
          <mxGeometry y="346" width="400" height="44" as="geometry" />
        </mxCell>
        <mxCell id="AluL9wqYmL2-duGfTxGr-48" value="Use" style="edgeStyle=orthogonalEdgeStyle;rounded=0;orthogonalLoop=1;jettySize=auto;html=1;endArrow=open;endFill=0;" parent="WIyWlLk6GJQsqaUBKTNV-1" source="AluL9wqYmL2-duGfTxGr-10" target="AluL9wqYmL2-duGfTxGr-39" edge="1">
          <mxGeometry relative="1" as="geometry" />
        </mxCell>
      </root>
    </mxGraphModel>
  </diagram>
</mxfile>
